<svg width="145" height="24" viewBox="0 0 145 24" fill="none" xmlns="http://www.w3.org/2000/svg">
<path d="M33.566 9.612V18H32.504V5.4H37.76L40.388 10.656L42.476 5.4H48.236V18H42.476V8.55L38.804 18H37.238L33.566 9.612ZM55.304 18.09C53.132 18.09 51.578 17.772 50.642 17.136C49.718 16.5 49.256 15.528 49.256 14.22V5.4H56.132V14.22C56.132 15.072 56.318 15.696 56.69 16.092C57.074 16.476 57.578 16.668 58.202 16.668C59.594 16.668 60.29 15.852 60.29 14.22V5.4H61.352V14.22C61.352 15.24 61.136 16.032 60.704 16.596C60.272 17.148 59.624 17.538 58.76 17.766C57.896 17.982 56.744 18.09 55.304 18.09ZM71.8557 9.918C73.2837 10.302 74.3517 10.812 75.0597 11.448C75.7677 12.072 76.1217 12.888 76.1217 13.896C76.1217 14.7 75.8697 15.42 75.3657 16.056C74.8617 16.692 74.1177 17.19 73.1337 17.55C72.1617 17.91 70.9797 18.09 69.5877 18.09C67.9437 18.09 66.4917 17.88 65.2317 17.46C63.9837 17.028 63.0057 16.506 62.2977 15.894L62.8917 15.084C63.5157 15.576 64.3017 15.996 65.2497 16.344C66.1977 16.692 67.2177 16.866 68.3097 16.866C69.0177 16.866 69.5517 16.764 69.9117 16.56C70.2837 16.356 70.4697 16.068 70.4697 15.696C70.4697 15.048 69.8277 14.544 68.5437 14.184L66.2037 13.5C64.9317 13.116 63.9477 12.582 63.2517 11.898C62.5677 11.214 62.2257 10.404 62.2257 9.468C62.2257 8.688 62.4717 7.98 62.9637 7.344C63.4557 6.708 64.1697 6.21 65.1057 5.85C66.0537 5.478 67.1877 5.292 68.5077 5.292C69.7677 5.292 70.9257 5.436 71.9817 5.724C73.0497 6.012 73.9197 6.36 74.5917 6.768L73.9977 7.596C73.4337 7.272 72.7557 6.996 71.9637 6.768C71.1837 6.54 70.3617 6.426 69.4977 6.426C68.7417 6.426 68.1597 6.546 67.7517 6.786C67.3557 7.014 67.1577 7.332 67.1577 7.74C67.1577 8.052 67.3077 8.328 67.6077 8.568C67.9077 8.796 68.4777 9.024 69.3177 9.252L71.8557 9.918ZM77.0294 5.4H82.8974V18H77.0294V5.4ZM93.154 16.83C94.054 16.83 94.768 16.464 95.296 15.732C95.824 15 96.166 14.112 96.322 13.068H97.438C97.27 14.364 96.844 15.468 96.16 16.38C95.776 16.884 95.338 17.262 94.846 17.514C94.366 17.754 93.832 17.91 93.244 17.982C92.668 18.054 91.912 18.09 90.976 18.09C89.656 18.09 88.582 17.964 87.754 17.712C86.938 17.448 86.236 17.022 85.648 16.434C84.496 15.282 83.92 13.698 83.92 11.682C83.92 9.558 84.436 7.98 85.468 6.948C86.14 6.276 86.89 5.832 87.718 5.616C88.546 5.4 89.632 5.292 90.976 5.292C92.212 5.292 93.214 5.382 93.982 5.562C94.762 5.73 95.398 6.096 95.89 6.66C96.298 7.128 96.616 7.692 96.844 8.352C97.072 9.012 97.204 9.666 97.24 10.314H96.214C96.166 9.774 96.034 9.222 95.818 8.658C95.614 8.082 95.29 7.59 94.846 7.182C94.402 6.762 93.838 6.552 93.154 6.552C92.506 6.552 91.984 6.834 91.588 7.398C91.24 7.842 90.976 8.496 90.796 9.36C90.664 10.02 90.598 10.794 90.598 11.682C90.598 13.086 90.766 14.22 91.102 15.084C91.534 16.248 92.218 16.83 93.154 16.83Z" fill="#3470A2"/>
<path d="M98.5835 5.4H110.59C111.202 5.4 111.76 5.55 112.264 5.85C112.78 6.138 113.188 6.54 113.488 7.056C113.788 7.56 113.938 8.118 113.938 8.73C113.938 9.318 113.794 9.876 113.506 10.404C113.218 10.932 112.834 11.358 112.354 11.682C112.834 12.018 113.218 12.456 113.506 12.996C113.794 13.524 113.938 14.082 113.938 14.67C113.938 15.27 113.788 15.828 113.488 16.344C113.188 16.848 112.78 17.25 112.264 17.55C111.76 17.85 111.202 18 110.59 18H98.5835V5.4ZM105.172 11.178C105.604 11.178 106 11.076 106.36 10.872C106.732 10.656 107.02 10.368 107.224 10.008C107.44 9.636 107.548 9.24 107.548 8.82C107.548 8.388 107.44 7.992 107.224 7.632C107.02 7.26 106.732 6.966 106.36 6.75C106 6.534 105.604 6.426 105.172 6.426H104.902V11.16C104.962 11.172 105.052 11.178 105.172 11.178ZM105.172 16.956C105.604 16.956 106 16.854 106.36 16.65C106.732 16.434 107.02 16.146 107.224 15.786C107.44 15.414 107.548 15.012 107.548 14.58C107.548 14.16 107.44 13.77 107.224 13.41C107.02 13.038 106.732 12.75 106.36 12.546C106 12.33 105.604 12.222 105.172 12.222H104.902V16.938C104.962 16.95 105.052 16.956 105.172 16.956ZM123.053 18.09C121.445 18.09 119.993 17.844 118.697 17.352C117.401 16.86 116.375 16.134 115.619 15.174C114.875 14.202 114.503 13.038 114.503 11.682C114.503 10.338 114.881 9.186 115.637 8.226C116.393 7.266 117.413 6.54 118.697 6.048C119.993 5.544 121.445 5.292 123.053 5.292C124.649 5.292 126.089 5.544 127.373 6.048C128.669 6.54 129.689 7.266 130.433 8.226C131.189 9.186 131.567 10.338 131.567 11.682C131.567 13.038 131.189 14.202 130.433 15.174C129.689 16.134 128.669 16.86 127.373 17.352C126.089 17.844 124.649 18.09 123.053 18.09ZM123.053 17.028C123.557 17.028 123.929 16.8 124.169 16.344C124.373 15.996 124.511 15.378 124.583 14.49C124.619 14.022 124.637 13.086 124.637 11.682C124.637 10.266 124.607 9.264 124.547 8.676C124.511 7.956 124.379 7.41 124.151 7.038C123.911 6.582 123.545 6.354 123.053 6.354C122.549 6.354 122.171 6.582 121.919 7.038C121.715 7.398 121.583 7.944 121.523 8.676C121.475 9.3 121.451 10.302 121.451 11.682C121.451 13.242 121.469 14.178 121.505 14.49C121.553 15.318 121.685 15.936 121.901 16.344C122.153 16.8 122.537 17.028 123.053 17.028ZM133.889 11.646L130.757 5.4H137.057L139.577 10.404L142.313 5.4H143.717L140.225 11.736L143.357 18H137.057L134.555 12.978L131.783 18H130.397L133.889 11.646Z" fill="#55ACEE"/>
<path d="M6.13143 9.58393C6.13143 7.77358 6.13143 5.96372 6.13143 4.15435C6.13143 3.31735 6.1247 2.48034 6.14895 1.6448C6.15724 1.56163 6.18337 1.48172 6.22524 1.41146C6.26712 1.3412 6.32357 1.28254 6.3901 1.24017C8.12528 0.575535 9.88066 0.00584297 11.7506 0C12.3757 0 12.8202 0.242485 13.1301 0.832625C13.9128 2.31966 14.4355 3.91917 14.8909 5.5479C14.9542 5.77139 14.8612 5.86342 14.6645 5.88387C12.2719 6.13512 10.1434 7.21168 8.0431 8.37736C7.80599 8.50882 7.78444 8.7031 7.78578 8.94705C7.78578 12.3725 7.76962 15.7979 7.79656 19.2234C7.80734 20.6841 7.21996 21.7651 6.22439 22.64C5.22882 23.515 4.12143 24 2.85642 24C2.33216 24.0008 1.81248 23.8942 1.32467 23.6859C0.145878 23.1645 -0.291958 21.8571 0.197071 20.5264C0.513306 19.7006 1.04171 18.9907 1.71939 18.4813C2.95072 17.5085 4.31004 17.0732 5.8364 17.3609C6.17454 17.4252 6.20688 17.3872 6.20688 16.9388V9.58393H6.13143Z" fill="#3470A2"/>
<path d="M20.8582 6.48273V7.01298C20.8582 10.51 20.8097 14.0099 20.8798 17.5055C20.9161 19.3343 20.128 20.5555 18.8172 21.4787C17.6196 22.323 16.3061 22.6984 14.8794 22.3084C13.3732 21.8979 12.7023 20.4284 13.3382 18.8917C13.9943 17.3039 15.2149 16.4289 16.6954 15.9323C17.3911 15.6875 18.1325 15.6373 18.8509 15.7862C19.2766 15.8768 19.3103 15.8373 19.3076 15.3626C19.2959 12.6544 19.2829 9.94663 19.2685 7.23939C19.2685 6.71498 19.15 6.60105 19.8209 6.57329C20.1469 6.55576 20.4689 6.51632 20.8582 6.48273Z" fill="#55ACEE"/>
<path d="M23.9999 4.10392C23.8181 4.30551 23.651 4.52462 23.4543 4.70575C22.7026 5.39376 21.7919 5.62748 20.8462 5.7458C20.5013 5.78962 20.1551 5.80715 19.8088 5.83198C18.9904 5.90208 18.2021 6.19774 17.5186 6.6909C16.8789 7.12116 16.1677 7.41147 15.4251 7.54543C15.2553 7.57903 15.0802 7.57757 14.8148 7.59948C15.0263 7.20216 15.1786 6.88225 15.3618 6.58572C15.4928 6.38932 15.5734 6.15875 15.5955 5.91753C15.6175 5.6763 15.5801 5.43306 15.4871 5.21263C15.0708 4.09954 14.6787 2.97477 14.2746 1.85292C14.117 1.4147 14.1116 1.37234 14.4901 1.17806C15.3589 0.707891 16.3436 0.551269 17.3004 0.73107C18.915 1.08274 20.5909 0.869979 22.0869 0.123401C22.1651 0.0854215 22.2513 0.069355 22.4305 0.0109253C22.4007 0.251729 22.3534 0.489599 22.289 0.722306C22.029 1.42638 21.5359 1.91573 20.9634 2.32036C20.7573 2.46643 20.5404 2.59352 20.3302 2.73229C20.0608 2.91342 20.0325 3.1486 20.3302 3.30052C20.7322 3.50905 21.1588 3.65651 21.5979 3.73874C22.3671 3.86728 23.1499 3.91841 23.9258 4.00167L23.9999 4.10392Z" fill="#55ACEE"/>
</svg>
