<svg width="288" height="288" viewBox="0 0 288 288" fill="none" xmlns="http://www.w3.org/2000/svg">
<rect width="288" height="288" fill="#F4F4F4"/>
<path d="M234.921 217.684C235.423 213.777 234.606 209.87 233.287 206.153C233.224 205.901 233.098 205.712 232.973 205.522C232.91 204.388 232.784 203.254 232.658 202.12C232.47 200.481 232.281 198.906 232.093 197.268C231.527 193.55 230.836 189.958 230.648 186.303C228.762 183.026 224.552 181.199 220.845 181.136C220.719 181.073 220.656 181.01 220.531 180.947C216.886 179.182 213.116 178.111 209.22 177.166C209.157 177.166 209.094 177.166 209.031 177.103C210.477 173.826 211.671 170.486 212.927 167.462C215.189 162.169 217.2 156.686 216.383 150.826C215.755 146.478 211.859 143.957 207.837 143.957C208.277 141.626 208.34 139.168 207.9 136.774C206.958 131.291 201.868 127.952 196.715 128.015C198.223 125.746 199.669 123.352 201.051 120.957C203.816 116.105 199.229 109.551 193.699 111.316C193.448 111.379 193.196 111.505 192.945 111.568C193.385 100.351 194.453 89.2608 194.139 78.0442C194.013 72.4359 192.065 68.277 189.552 63.4248C187.604 59.707 185.907 56.1152 182.702 53.4686C182.388 53.0905 182.011 52.8384 181.634 52.6494C181.634 52.6494 181.634 52.6494 181.571 52.6494C180.063 51.6411 177.487 52.2713 176.67 53.9097C175.664 55.9261 175.162 58.0686 174.659 60.2111C174.408 61.2823 174.596 62.2276 175.036 62.9207C174.785 64.118 174.659 65.3783 174.596 66.6386C174.596 67.5208 174.848 68.2139 175.225 68.7181C175.162 68.8441 175.036 68.9701 174.973 69.0961C174.722 69.6003 174.471 70.1044 174.282 70.6085C171.957 70.9236 169.569 71.8688 167.37 72.4359C162.469 73.6332 157.567 74.7044 152.854 76.4688C144.623 79.6196 136.265 82.8333 129.667 88.8827C127.091 91.2142 124.2 94.428 122.629 97.5787C120.744 101.36 121.875 105.582 124.075 108.921C124.075 108.984 124.075 109.047 124.075 109.173C124.012 111.379 125.771 112.954 126.777 114.782C127.971 116.987 129.981 117.365 131.741 116.735C133.5 117.491 135.385 117.743 137.271 117.68C139.847 117.554 142.046 117.302 144.685 117.617C146.822 117.806 148.896 118.184 151.032 118.689C153.106 119.193 154.802 120.831 156.876 121.65C158.258 122.217 160.332 122.154 161.84 122.469C164.102 122.974 166.302 122.154 168.627 122.343C171.894 122.658 174.91 123.163 178.115 122.658C174.973 127.132 172.585 132.363 168.564 136.144C167.244 137.404 165.045 137.152 163.411 137.152C160.018 137.152 156.625 137.404 153.169 137.278C149.712 137.152 146.194 136.207 142.737 135.828C139.219 135.45 135.637 135.324 132.118 135.072C130.987 135.009 129.981 135.324 129.039 135.891C126.588 135.639 124.137 135.45 121.624 135.576C120.367 135.639 119.236 136.144 118.294 136.963C117.728 136.774 117.162 136.711 116.597 136.711C111.633 137.026 107.297 139.609 103.401 142.508C102.458 143.201 101.704 144.083 101.202 145.029C99.4422 146.163 97.6827 147.36 96.049 148.746C94.9807 149.692 94.5408 150.763 94.5408 151.834C94.2267 152.212 93.9125 152.527 93.5983 152.905C91.2104 155.993 89.9537 159.711 89.5767 163.555C89.3881 163.807 89.1996 164.059 89.0111 164.374C87.8172 166.58 87.503 168.974 87.4402 171.432C87.4402 172.944 87.503 174.519 87.6287 176.095C87.2517 177.859 87.2517 179.75 87.3773 181.64C87.503 183.846 88.2571 185.799 89.1996 187.689C89.1996 187.752 89.1368 187.752 89.1368 187.815C88.5713 189.706 89.074 191.281 89.9537 192.92C90.0794 193.172 90.2679 193.424 90.3935 193.676C90.5821 194.306 90.8334 194.873 91.1476 195.377C91.1476 195.44 91.2104 195.44 91.2104 195.503C90.9591 197.142 90.5192 198.843 90.2679 200.355C89.5767 205.018 88.0057 209.492 87.126 214.092C84.4868 215.353 82.0361 217.054 79.5226 218.629C77.7003 219.764 75.7523 220.835 73.8672 221.843C72.9875 222.284 71.1023 223.986 69.9713 224.427C69.28 224.49 68.5888 224.616 67.8976 224.742C63.2476 225.813 62.3679 232.493 65.7611 235.076C65.7611 236.841 66.3895 238.794 67.1436 240.433C69.2172 245.285 74.8098 244.97 78.58 242.89C81.9733 241 85.0523 238.668 88.5713 236.904C93.1584 234.698 97.6199 232.178 101.704 229.09C102.458 228.523 103.087 227.893 103.527 227.199C105.412 226.065 106.857 224.112 107.925 221.843C110.564 219.575 111.696 215.983 112.701 212.769C113.015 211.698 113.392 210.501 113.644 209.303C114.209 209.24 114.775 209.114 115.277 208.988C115.403 209.429 115.529 209.87 115.78 210.375C117.351 213.273 119.11 215.983 120.996 218.693C120.242 219.512 119.613 220.52 119.048 221.591C116.911 224.301 114.775 227.01 113.015 230.035C112.952 230.161 112.827 230.35 112.764 230.476C111.758 231.737 110.69 232.997 109.81 234.383C108.365 235.832 106.983 237.345 105.663 238.857C103.904 240.874 103.338 244.402 105.663 246.293C106.731 247.175 107.423 247.49 108.679 247.994C109.496 248.309 110.313 248.309 111.067 248.12C111.13 248.561 111.256 249.065 111.381 249.507C112.701 253.855 117.665 254.8 120.87 252.027C122.378 250.704 122.818 248.876 124.075 247.427C125.96 245.348 127.719 243.268 129.227 240.874C130.673 238.605 132.118 236.4 133.689 234.194C135.008 233.879 136.139 232.997 136.894 231.358C137.585 229.783 138.59 228.46 139.344 226.947C139.533 226.632 139.596 226.317 139.721 226.002C140.161 225.372 140.601 224.868 140.915 224.49C143.303 221.969 143.303 218.125 140.915 215.605C141.544 216.298 140.538 214.849 140.727 215.353C140.412 214.597 140.224 213.777 140.035 213.021C139.533 211.257 139.093 209.492 138.402 207.728C137.396 205.081 136.579 202.309 135.7 199.662C135.762 199.599 135.888 199.536 135.951 199.536C138.779 201.994 142.423 202.246 145.942 201.364C151.472 201.805 157.504 201.111 162.469 199.788C165.296 199.032 168.061 198.15 170.826 197.205C171.769 199.536 173.214 201.742 174.533 203.821C177.55 208.673 180.943 213.399 184.336 218.062C184.587 218.566 184.902 219.008 185.279 219.386C185.216 220.142 185.153 220.898 185.09 221.591C184.964 222.473 184.902 223.293 184.776 224.175C184.776 224.301 184.713 224.742 184.65 225.057C184.21 227.578 182.765 229.846 182.074 232.241C181.383 234.509 180.943 236.904 180.943 239.298C178.555 241.567 178.052 245.978 181.634 247.49C182.2 247.742 182.639 248.372 183.079 248.813C184.022 249.696 185.027 250.074 186.221 250.515C187.855 251.145 189.866 251.334 191.562 251.271C195.961 251.019 198.537 247.994 199.794 244.024C200.8 240.937 201.239 237.345 201.742 234.194C201.994 232.871 202.182 231.484 202.371 230.035C203.25 229.279 203.879 228.334 204.13 227.199C204.884 224.049 205.827 221.024 205.952 217.747C206.141 213.966 203.879 211.32 202.119 208.232C199.857 204.136 198.349 199.725 196.338 195.503C198.098 196.133 199.983 196.511 201.868 196.763C202.936 196.889 204.004 196.89 205.135 196.826C207.083 198.024 209.408 197.898 211.545 198.528C211.985 199.977 212.362 201.427 212.739 202.813C212.864 203.821 212.927 204.766 213.053 205.712C213.242 206.972 213.43 208.169 213.619 209.366C213.807 212.013 214.247 214.723 214.875 217.306C214.875 217.747 214.938 218.188 214.938 218.566C214.938 219.386 215.001 220.268 215.064 221.087C215.064 222.032 215.315 222.914 215.755 223.734C215.818 223.797 215.818 223.86 215.881 223.923V223.986C215.881 223.986 215.881 223.986 215.944 223.986C216.258 224.616 216.195 224.616 215.881 223.986C215.755 226.506 217.703 228.838 220.028 229.468C222.227 230.098 224.175 229.342 225.558 227.83C225.683 227.83 225.809 227.83 225.935 227.83C226.814 227.893 227.694 227.704 228.574 227.389C230.396 228.145 232.596 227.893 234.229 226.758C234.229 226.569 234.167 226.317 234.167 226.128C234.795 225.876 235.298 225.309 235.486 224.427C235.989 222.41 235.675 219.953 234.921 217.684Z" fill="white"/>
<path d="M177.864 122.469C177.487 123.289 177.11 124.108 176.67 124.864C172.774 131.859 167.685 136.585 159.516 136.711C148.645 136.9 137.899 134.316 127.091 134.757C117.351 135.198 107.423 138.538 99.9454 145.092C91.7136 152.275 88.3204 159.396 87.5035 173.07C86.8122 184.98 91.0224 194.873 91.0224 194.873C88.7602 207.98 87.3778 214.471 87.3778 214.471C87.3778 214.471 65.0704 225.12 63.9393 229.216C62.9339 232.808 68.3379 244.592 74.0562 244.592C77.7636 244.592 105.412 226.947 105.412 226.947C105.412 226.947 111.57 219.827 112.387 209.303C129.793 207.476 140.224 192.29 138.025 194.621" stroke="#2E282A" stroke-width="3" stroke-miterlimit="10" stroke-linecap="round"/>
<path d="M170.135 198.024C177.864 208.862 185.656 219.386 185.656 219.386C185.656 219.386 177.55 242.764 179.686 246.482C181.508 249.696 193.887 251.712 197.721 250.011C201.114 248.498 207.146 215.227 207.146 215.227C207.146 215.227 201.177 202.813 194.327 194.873C194.327 194.873 209.848 189.265 213.996 162.295C218.143 135.324 219.777 129.527 219.777 129.527" stroke="#2E282A" stroke-width="3" stroke-miterlimit="10" stroke-linecap="round"/>
<path d="M135.386 200.544C135.386 200.544 154.426 206.783 170.135 197.457" stroke="#2E282A" stroke-width="3" stroke-miterlimit="10" stroke-linecap="round"/>
<path d="M210.288 176.977C210.288 176.977 217.075 179.687 223.484 181.703C229.894 183.719 230.962 185.421 232.659 195.314C234.355 205.144 235.361 217.747 236.052 222.158C236.743 226.569 232.659 226.884 227.569 227.578C222.479 228.271 217.389 231.673 215.692 223.86C213.996 216.046 211.608 199.095 211.608 199.095L194.265 194.999" stroke="#2E282A" stroke-width="3" stroke-miterlimit="10" stroke-linecap="round"/>
<path d="M133.626 199.914C133.626 199.914 137.648 209.114 140.664 215.101C143.743 221.15 143.241 223.041 137.397 231.169C131.616 239.298 123.384 248.813 120.682 252.405C118.043 255.997 114.901 253.35 110.879 250.137C106.858 246.986 100.888 245.726 105.224 239.046C109.56 232.367 119.991 218.756 119.991 218.756L115.466 209.303" stroke="#2E282A" stroke-width="3" stroke-miterlimit="10" stroke-linecap="round"/>
<path d="M191.877 113.269C175.602 132.111 150.216 118.247 142.172 118.184C134.129 118.121 122.881 119.382 121.813 101.107C120.745 82.8333 175.225 67.8989 175.225 67.8989C175.225 67.8989 172.209 55.8631 176.984 51.7041C181.823 47.5452 192.945 62.3536 195.27 80.8168C195.27 80.8168 210.477 105.014 219.149 129.401" stroke="#2E282A" stroke-width="3" stroke-miterlimit="10" stroke-linecap="round"/>
<path d="M134.878 101.477L134.882 101.477C135.61 101.572 136.079 101.884 136.355 102.255C136.636 102.634 136.744 103.109 136.681 103.569C136.619 104.029 136.389 104.456 136.019 104.742C135.655 105.023 135.12 105.195 134.391 105.087L134.391 105.087L134.385 105.086C133.848 105.013 133.5 104.744 133.29 104.393C133.071 104.028 132.988 103.548 133.054 103.066C133.12 102.583 133.328 102.143 133.637 101.85C133.934 101.568 134.341 101.403 134.878 101.477Z" fill="#684C40" stroke="#2E282A"/>
<path d="M221.851 115.475C221.851 115.475 230.145 127.259 226.438 140.429C221.411 158.325 205.827 164.311 199.858 178.111C199.166 179.687 190.935 163.555 203.502 145.911C210.037 136.774 218.772 124.36 218.772 124.36L221.851 115.475Z" fill="#3470A2" stroke="#2E282A" stroke-width="3" stroke-miterlimit="10" stroke-linecap="round"/>
<path d="M207.775 87.4333C207.775 87.4333 221.788 98.2718 221.851 112.324C221.976 133.245 202.622 143.579 197.092 157.821C195.27 153.662 195.27 138.538 204.445 118.752C209.157 108.543 207.586 96.8225 207.586 96.8225L207.775 87.4333Z" fill="#F49D37" stroke="#2E282A" stroke-width="3" stroke-miterlimit="10" stroke-linecap="round" stroke-linejoin="round"/>
<path d="M194.579 71.3646C194.579 71.3646 207.147 77.351 210.352 91.0251C215.002 110.938 198.915 123.793 197.093 140.807C194.328 136.648 188.798 127.511 193.7 106.401C196.213 95.4362 195.208 80.7538 195.208 80.7538L194.579 71.3646Z" fill="#EF3E36" stroke="#2E282A" stroke-width="3" stroke-miterlimit="10" stroke-linecap="round"/>
<path d="M163.474 91.4032C162.217 95.6882 164.668 100.162 168.878 101.359C173.151 102.62 177.613 100.162 178.807 95.9402" stroke="#2E282A" stroke-width="3" stroke-miterlimit="10" stroke-linecap="round"/>
<path d="M114.021 175.78C118.545 175.78 122.378 173.133 124.201 169.289C123.132 170.171 121.75 170.739 120.242 170.739C116.849 170.739 114.084 167.966 114.084 164.563C114.084 161.16 116.849 158.388 120.242 158.388C121.75 158.388 123.132 158.955 124.201 159.837C122.441 155.993 118.545 153.347 114.021 153.347C107.8 153.347 102.773 158.388 102.773 164.626C102.836 170.739 107.863 175.78 114.021 175.78Z" fill="#EF3E36" stroke="#2E282A" stroke-width="3" stroke-miterlimit="10" stroke-linecap="round" stroke-linejoin="round"/>
<path d="M156.562 63.74C155.305 64.1811 144.057 66.0715 143.68 54.4138C143.68 54.4138 132.055 66.5126 143.68 73.9483C155.305 81.447 167.747 69.3483 167.747 69.3483L156.562 63.74Z" fill="#EF3E36" stroke="#2E282A" stroke-width="3" stroke-miterlimit="10" stroke-linecap="round" stroke-linejoin="round"/>
<path d="M153.961 44.4999L153.958 44.4916L153.955 44.4834C153.406 42.8928 153.099 41.2355 152.976 39.5078C152.871 37.9467 154.018 36.7112 155.464 36.254C156.903 35.7989 158.412 36.1779 159.06 37.6063L159.06 37.6063L159.061 37.6089C159.439 38.4309 159.807 39.2303 160.112 40.0882L160.168 40.2441L160.305 40.3361C160.391 40.393 160.451 40.4313 160.497 40.4604C160.582 40.5146 160.618 40.537 160.669 40.5886L160.688 40.607L160.708 40.6234C162.321 41.936 164.393 44.3019 166.171 47.0747C167.951 49.8494 169.404 52.979 169.829 55.8113L169.862 56.031L170.047 56.1538C173.82 58.6562 176.37 63.5019 175.305 67.7133L175.305 67.7149C174.425 71.2432 171.573 72.9402 168.574 72.8812L168.445 72.8787L168.33 72.9389C166.11 74.111 163.45 74.116 161.045 71.9393C159.235 70.3004 158.652 68.0207 159.002 66.0321L159.052 65.7483L158.832 65.5628C156.983 64.0082 155.577 61.2711 154.964 59.3648L154.964 59.3648L154.963 59.3602C154.03 56.5557 153.647 53.6384 154.868 51.3059L154.931 51.1867L154.925 51.0524C154.864 49.6581 155.046 48.2645 155.407 47.0584L155.428 46.9882V46.9151C155.428 46.7699 155.39 46.6578 155.373 46.6066C155.372 46.6042 155.372 46.6019 155.371 46.5998C155.368 46.5919 155.366 46.5859 155.365 46.5816V46.3601L155.178 46.21C154.608 45.7529 154.176 45.2017 153.961 44.4999Z" fill="#FFD6D2" stroke="#2E282A"/>
<path d="M159.578 73.8853C159.578 73.8853 154.425 70.1674 157.002 63.3619C157.002 63.3619 151.598 57.5645 154.739 51.3261C154.739 51.3261 149.712 35.6355 154.425 34.1231C159.075 32.6108 163.6 45.5288 163.6 45.5288C163.6 45.5288 170.135 49.8137 169.695 55.9261C169.695 55.9261 176.67 62.8577 175.476 69.1592C175.539 69.1592 168.061 76.7209 159.578 73.8853Z" fill="#FFD6D2" stroke="#2E282A" stroke-width="3" stroke-miterlimit="10" stroke-linecap="round"/>
<path d="M157.064 63.3619C157.064 63.3619 169.004 59.7071 169.695 54.3508Z" fill="#FFD6D2"/>
<path d="M157.064 63.3619C157.064 63.3619 169.004 59.7071 169.695 54.3508" stroke="#2E282A" stroke-width="3" stroke-miterlimit="10" stroke-linecap="round"/>
<path d="M154.802 51.3261C154.802 51.3261 164.542 50.759 163.662 45.5288Z" fill="#FFD6D2"/>
<path d="M154.802 51.3261C154.802 51.3261 164.542 50.759 163.662 45.5288" stroke="#2E282A" stroke-width="3" stroke-miterlimit="10" stroke-linecap="round"/>
<path d="M62.8708 186.366C62.8708 186.366 56.4613 195.503 59.3519 205.649C63.2478 219.512 75.3127 224.112 79.8999 234.761C80.4026 235.958 86.812 223.482 77.0722 209.87C71.9823 202.813 65.2586 193.235 65.2586 193.235L62.8708 186.366Z" fill="#3470A2" stroke="#2E282A" stroke-width="3" stroke-miterlimit="10" stroke-linecap="round"/>
<path d="M72.548 157.001C72.548 157.001 60.4203 166.454 60.2946 178.615C60.169 196.763 77.0095 205.775 81.7852 218.125C83.3561 214.534 83.3561 201.364 75.4386 184.224C71.3541 175.339 72.7365 165.193 72.7365 165.193L72.548 157.001Z" fill="#F49D37" stroke="#2E282A" stroke-width="3" stroke-miterlimit="10" stroke-linecap="round" stroke-linejoin="round"/>
<path d="M88.2572 186.429C88.1944 185.925 88.0687 185.421 88.0059 184.917C87.9431 184.791 87.9431 184.665 87.8802 184.602C86.2464 178.426 86.2464 172.188 87.8802 166.012C88.1944 164.374 88.8228 162.547 89.514 160.845C90.2052 158.892 91.0849 157.001 92.0904 155.111C92.0904 155.048 92.1532 154.985 92.1532 154.922C92.9701 153.157 94.1012 151.582 95.2951 150.007C95.3579 149.944 95.3579 149.881 95.4208 149.881C95.4836 149.818 95.5464 149.755 95.6093 149.692C95.3579 149.251 91.3991 142.382 84.3613 142.067C77.0721 141.752 71.4795 145.911 68.7147 157.758C64.6931 175.023 80.1512 188.698 81.7221 203.443C83.2931 201.048 87.5032 196.637 88.8228 188.446C88.6971 187.752 88.4458 187.122 88.2572 186.429Z" fill="#EF3E36" stroke="#2E282A" stroke-width="3" stroke-miterlimit="10" stroke-linecap="round"/>
<path d="M87.8175 77.8551L91.3364 87.5593L101.013 91.1512L91.3364 94.68L87.8175 104.384L84.2986 94.68L74.6216 91.1512L84.2986 87.5593L87.8175 77.8551Z" fill="#EF3E36" stroke="#2E282A" stroke-width="3" stroke-miterlimit="10" stroke-linecap="round" stroke-linejoin="round"/>
<path d="M63.9392 60.2111L67.1439 69.0331L75.8784 72.2468L67.1439 75.3975L63.9392 84.2196L60.7345 75.3975L52 72.2468L60.7345 69.0331L63.9392 60.2111Z" fill="#3470A2" stroke="#2E282A" stroke-width="3" stroke-miterlimit="10" stroke-linecap="round" stroke-linejoin="round"/>
<path d="M90.331 40.6766L92.8445 47.6082L99.7566 50.1918L92.8445 52.7124L90.331 59.644L87.8174 52.7124L80.9053 50.1918L87.8174 47.6082L90.331 40.6766Z" fill="white" stroke="#2E282A" stroke-width="3" stroke-miterlimit="10" stroke-linecap="round" stroke-linejoin="round"/>
</svg>
